Fungal-Grow 200 Thickness 0.ufo
<glyph name="space" format="1">
  <advance width="651"/>
  <unicode hex="0020"/>
  <outline>
    <contour>
      <point x="110" y="1373" type="line"/>
      <point x="203" y="1463" type="line"/>
    </contour>
    <component base="blob1" xScale="-0.8211" yScale="-0.8211" xOffset="283" yOffset="541"/>
    <component base="blob2" xScale="-1" yScale="-1" xOffset="444" yOffset="238"/>
    <component base="blob3" xScale="-1" yScale="-1" xOffset="823" yOffset="88"/>
    <component base="blob4" xScale="-0.8168" yScale="-0.8168" xOffset="718" yOffset="-295"/>
    <component base="blob5" xScale="-1" yScale="-1" xOffset="622" yOffset="-587"/>
    <component base="blob6" xScale="-0.8993" yScale="-0.8993" xOffset="434" yOffset="-846"/>
    <component base="blob7" xScale="-1.0017" yScale="-1.0017" xOffset="250" yOffset="-1128"/>
    <component base="blob8" xScale="-0.7047" yScale="-0.7047" xOffset="289" yOffset="-1433"/>
    <component base="blob9" xScale="-0.4869" yScale="-0.4869" xOffset="398" yOffset="-1615"/>
    <component base="blob6" xScale="-0.6653" yScale="-0.6653" xOffset="832" yOffset="-710"/>
    <component base="blob7" xScale="-0.5954" yScale="-0.5954" xOffset="960" yOffset="-872"/>
    <component base="blob8" xScale="-0.3743" yScale="-0.3743" xOffset="993" yOffset="-1014"/>
    <component base="blob9" xScale="-0.4869" yScale="-0.4869" xOffset="981" yOffset="-1164"/>
    <component base="blob2" xScale="-0.7388" yScale="-0.7388" xOffset="-95" yOffset="564"/>
    <component base="blob3" xScale="-1" yScale="-1" xOffset="-456" yOffset="366"/>
    <component base="blob4" xScale="-0.8168" yScale="-0.8168" xOffset="-810" yOffset="534"/>
    <component base="blob5" xScale="-1" yScale="-1" xOffset="-1112" yOffset="850"/>
    <component base="blob6" xScale="-0.8993" yScale="-0.8993" xOffset="-1478" yOffset="622"/>
    <component base="blob7" xScale="-1.0017" yScale="-1.0017" xOffset="-1762" yOffset="282"/>
    <component base="blob8" xScale="-0.7047" yScale="-0.7047" xOffset="-2152" yOffset="186"/>
    <component base="blob9" xScale="-0.4869" yScale="-0.4869" xOffset="-2437" yOffset="262"/>
    <component base="blob3" xScale="-0.6799" yScale="-0.6799" xOffset="461" yOffset="831"/>
    <component base="blob4" xScale="-0.5945" yScale="-0.5945" xOffset="528" yOffset="1097"/>
    <component base="blob5" xScale="-0.8022" yScale="-0.8022" xOffset="826" yOffset="1234"/>
    <component base="blob6" xScale="-0.8993" yScale="-0.8993" xOffset="1235" yOffset="1203"/>
    <component base="blob6" xScale="-0.8993" yScale="-0.8993" xOffset="1515" yOffset="1451"/>
    <component base="blob7" xScale="-1.0017" yScale="-1.0017" xOffset="1638" yOffset="1862"/>
    <component base="blob8" xScale="-0.7047" yScale="-0.7047" xOffset="2021" yOffset="2013"/>
    <component base="blob9" xScale="-0.4869" yScale="-0.4869" xOffset="2207" yOffset="1860"/>
  </outline>
</glyph>
<glyph name="hyphen" format="1">
  <advance width="739"/>
  <unicode hex="002D"/>
  <outline>
    <contour>
      <point x="100" y="643" type="line"/>
      <point x="639" y="643" type="line"/>
      <point x="639" y="479" type="line"/>
      <point x="100" y="479" type="line"/>
    </contour>
    <component base="blob1" xScale="1.2886" yScale="-1.2886" xOffset="889" yOffset="530"/>
    <component base="blob2" yScale="-1" xOffset="1303" yOffset="774"/>
    <component base="blob3" yScale="-1" xOffset="1728" yOffset="647"/>
    <component base="blob4" xScale="0.6152" yScale="-0.6152" xOffset="2052" yOffset="828"/>
    <component base="blob5" yScale="-1" xOffset="2407" yOffset="757"/>
    <component base="blob6" xScale="1.1539" yScale="-1.1539" xOffset="2826" yOffset="489"/>
    <component base="blob7" xScale="0.5898" yScale="-0.5898" xOffset="3209" yOffset="631"/>
    <component base="blob8" xScale="0.7047" yScale="-0.7047" xOffset="3440" yOffset="742"/>
    <component base="blob9" xScale="0.4869" yScale="-0.4869" xOffset="3633" yOffset="928"/>
    <component base="blob1" xScale="-1.2886" yScale="-1.2886" xOffset="56" yOffset="557"/>
    <component base="blob2" xScale="-1" yScale="-1" xOffset="-358" yOffset="801"/>
    <component base="blob3" xScale="-1" yScale="-1" xOffset="-708" yOffset="1108"/>
    <component base="blob4" xScale="-0.6152" yScale="-0.6152" xOffset="-1038" yOffset="1309"/>
    <component base="blob5" xScale="-1" yScale="-1" xOffset="-1332" yOffset="1230"/>
    <component base="blob6" xScale="-1.1539" yScale="-1.1539" xOffset="-1787" yOffset="992"/>
    <component base="blob7" xScale="-0.5898" yScale="-0.5898" xOffset="-2139" yOffset="769"/>
    <component base="blob8" xScale="-0.7047" yScale="-0.7047" xOffset="-2322" yOffset="567"/>
    <component base="blob9" xScale="-0.4869" yScale="-0.4869" xOffset="-2359" yOffset="272"/>
  </outline>
</glyph>
<glyph name="f" format="1">
  <advance width="721"/>
  <unicode hex="0066"/>
  <outline>
    <contour>
      <point x="760" y="1556" type="line"/>
      <point x="760" y="1403" type="line"/>
      <point x="584" y="1403" type="line" smooth="yes"/>
      <point x="452" y="1403"/>
      <point x="408" y="1357.667"/>
      <point x="408" y="1219" type="curve" smooth="yes"/>
      <point x="408" y="1120" type="line"/>
      <point x="711" y="1120" type="line"/>
      <point x="711" y="977" type="line"/>
      <point x="408" y="977" type="line"/>
      <point x="408" y="0" type="line"/>
      <point x="223" y="0" type="line"/>
      <point x="223" y="977" type="line"/>
      <point x="47" y="977" type="line"/>
      <point x="47" y="1120" type="line"/>
      <point x="223" y="1120" type="line"/>
      <point x="223" y="1198" type="line" smooth="yes"/>
      <point x="223" y="1447.333"/>
      <point x="334" y="1556"/>
      <point x="586" y="1556" type="curve" smooth="yes"/>
      <point x="760" y="1556" type="line"/>
    </contour>
    <component base="blob1" xScale="0" xyScale="1.2886" yScale="0" yxScale="1.2886" xOffset="776" yOffset="932"/>
    <component base="blob2" xScale="0" xyScale="1" yScale="0" yxScale="1" xOffset="1220" yOffset="836"/>
    <component base="blob3" xScale="0" xyScale="1" yScale="0" yxScale="1" xOffset="1664" yOffset="938"/>
    <component base="blob4" xScale="0" xyScale="0.6152" yScale="0" yxScale="0.6152" xOffset="1974" yOffset="1143"/>
    <component base="blob5" xScale="0" xyScale="1" yScale="0" yxScale="1" xOffset="2144" yOffset="1459"/>
    <component base="blob6" xScale="0" xyScale="0.9699" yScale="0" yxScale="0.9699" xOffset="2522" yOffset="1638"/>
    <component base="blob7" xScale="0" xyScale="0.7592" yScale="0" yxScale="0.7592" xOffset="2878" yOffset="1594"/>
    <component base="blob8" xScale="0" xyScale="0.7047" yScale="0" yxScale="0.7047" xOffset="3176" yOffset="1433"/>
    <component base="blob9" xScale="0" xyScale="0.4869" yScale="0" yxScale="0.4869" xOffset="3211" yOffset="1162"/>
    <component base="blob1" xScale="1.2886" yScale="-1.2886" xOffset="307" yOffset="-185"/>
    <component base="blob2" yScale="-1" xOffset="105" yOffset="-674"/>
    <component base="blob3" yScale="-1" xOffset="-130" yOffset="-1088"/>
    <component base="blob4" xScale="0.8783" yScale="-0.8783" xOffset="-326" yOffset="-1455"/>
    <component base="blob5" yScale="-1" xOffset="-291" yOffset="-1866"/>
    <component base="blob6" xScale="1.1539" yScale="-1.1539" xOffset="-171" yOffset="-2318"/>
    <component base="blob7" xScale="0.9753" yScale="-0.9753" xOffset="123" yOffset="-2697"/>
    <component base="blob8" xScale="0.7047" yScale="-0.7047" xOffset="354" yOffset="-3025"/>
    <component base="blob9" xScale="0.4869" yScale="-0.4869" xOffset="342" yOffset="-3311"/>
    <contour>
      <point x="480" y="1520" type="move" name="above"/>
    </contour>
    <contour>
      <point x="315" y="0" type="move" name="below"/>
    </contour>
    <contour>
      <point x="0" y="1520" type="move" name="half"/>
    </contour>
  </outline>
</glyph>
<glyph name="g" format="1">
  <advance width="1300"/>
  <unicode hex="0067"/>
  <outline>
    <contour>
      <point x="930" y="573" type="curve"/>
      <point x="930" y="573" type="line"/>
      <point x="930" y="839.667"/>
      <point x="814.667" y="993"/>
      <point x="616" y="993" type="curve" smooth="yes"/>
      <point x="418.667" y="993"/>
      <point x="303" y="839.667"/>
      <point x="303" y="573" type="curve" smooth="yes"/>
      <point x="303" y="307.667"/>
      <point x="418.667" y="154"/>
      <point x="616" y="154" type="curve" smooth="yes"/>
      <point x="814.667" y="154"/>
      <point x="930" y="307.667"/>
    </contour>
    <contour>
      <point x="1114" y="139" type="line"/>
      <point x="1114" y="-242.333"/>
      <point x="947.333" y="-426"/>
      <point x="598" y="-426" type="curve" smooth="yes"/>
      <point x="468.667" y="-426"/>
      <point x="356" y="-407"/>
      <point x="248" y="-367" type="curve"/>
      <point x="248" y="-188" type="line"/>
      <point x="356" y="-246.667"/>
      <point x="459.667" y="-274"/>
      <point x="569" y="-274" type="curve" smooth="yes"/>
      <point x="810.333" y="-274"/>
      <point x="930" y="-148.667"/>
      <point x="930" y="106" type="curve" smooth="yes"/>
      <point x="930" y="197" type="line"/>
      <point x="854" y="65"/>
      <point x="736.333" y="0"/>
      <point x="571" y="0" type="curve" smooth="yes"/>
      <point x="296.333" y="0"/>
      <point x="113" y="227.667"/>
      <point x="113" y="573" type="curve" smooth="yes"/>
      <point x="113" y="919.667"/>
      <point x="296.333" y="1147"/>
      <point x="571" y="1147" type="curve" smooth="yes"/>
      <point x="736.333" y="1147"/>
      <point x="854" y="1082"/>
      <point x="930" y="950" type="curve"/>
      <point x="930" y="1120" type="line"/>
      <point x="1114" y="1120" type="line"/>
      <point x="1114" y="139" type="line"/>
    </contour>
    <component base="blob1" xScale="1.2886" yScale="1.2886" xOffset="216" yOffset="474"/>
    <component base="blob2" xOffset="128" yOffset="877"/>
    <component base="blob3" xOffset="294" yOffset="1177"/>
    <component base="blob4" xScale="0.6152" yScale="0.6152" xOffset="508" yOffset="1359"/>
    <component base="blob5" xOffset="811" yOffset="1457"/>
    <component base="blob6" xScale="1.1539" yScale="1.1539" xOffset="891" yOffset="1918"/>
    <component base="blob7" xScale="0.5898" yScale="0.5898" xOffset="667" yOffset="2188"/>
    <component base="blob8" xScale="0.7047" yScale="0.7047" xOffset="482" yOffset="2160"/>
    <component base="blob9" xScale="0.4869" yScale="0.4869" xOffset="222" yOffset="2143"/>
    <contour>
      <point x="618" y="1147" type="move" name="above"/>
    </contour>
    <contour>
      <point x="678" y="-430" type="move" name="below"/>
    </contour>
    <contour>
      <point x="0" y="1520" type="move" name="half"/>
    </contour>
  </outline>
</glyph>
<glyph name="r" format="1">
  <advance width="842"/>
  <unicode hex="0072"/>
  <outline>
    <contour>
      <point x="842" y="948" type="line"/>
      <point x="800.667" y="972"/>
      <point x="752.667" y="983"/>
      <point x="694" y="983" type="curve" smooth="yes"/>
      <point x="486" y="983"/>
      <point x="371" y="843.333"/>
      <point x="371" y="590" type="curve" smooth="yes"/>
      <point x="371" y="0" type="line"/>
      <point x="186" y="0" type="line"/>
      <point x="186" y="1120" type="line"/>
      <point x="371" y="1120" type="line"/>
      <point x="371" y="946" type="line"/>
      <point x="448.333" y="1082"/>
      <point x="570.667" y="1147"/>
      <point x="748" y="1147" type="curve" smooth="yes"/>
      <point x="773.333" y="1147"/>
      <point x="803.667" y="1143.667"/>
      <point x="841" y="1137" type="curve"/>
      <point x="842" y="948" type="line"/>
    </contour>
    <component base="blob1" xScale="1.2886" yScale="-1.2886" xOffset="430" yOffset="521"/>
    <component base="blob2" yScale="-1" xOffset="703" yOffset="448"/>
    <component base="blob3" xScale="0.8725" yScale="-0.8725" xOffset="860" yOffset="295"/>
    <component base="blob4" xScale="0.8953" yScale="-0.8953" xOffset="930" yOffset="96"/>
    <component base="blob5" yScale="-1" xOffset="955" yOffset="-227"/>
    <component base="blob6" xScale="0.9597" yScale="-0.9597" xOffset="811" yOffset="-487"/>
    <component base="blob7" xScale="0.5898" yScale="-0.5898" xOffset="722" yOffset="-652"/>
    <component base="blob8" xScale="0.7047" yScale="-0.7047" xOffset="523" yOffset="-728"/>
    <component base="blob9" xScale="0.4869" yScale="-0.4869" xOffset="1820" yOffset="1157"/>
    <component base="blob4" xScale="0.7169" yScale="-0.7169" xOffset="1100" yOffset="363"/>
    <component base="blob5" xScale="0.8819" yScale="-0.8819" xOffset="1242" yOffset="556"/>
    <component base="blob6" xScale="1.0676" yScale="-1.0676" xOffset="1255" yOffset="917"/>
    <component base="blob7" xScale="0.5898" yScale="-0.5898" xOffset="1469" yOffset="1066"/>
    <component base="blob8" xScale="0.7047" yScale="-0.7047" xOffset="1627" yOffset="1195"/>
    <component base="blob9" xScale="0.4869" yScale="-0.4869" xOffset="348" yOffset="-638"/>
    <contour>
      <point x="535" y="1147" type="move" name="above"/>
    </contour>
    <contour>
      <point x="535" y="0" type="move" name="below"/>
    </contour>
    <contour>
      <point x="0" y="1520" type="move" name="half"/>
    </contour>
  </outline>
</glyph>
<glyph name="z" format="1">
  <advance width="1075"/>
  <unicode hex="007A"/>
  <outline>
    <contour>
      <point x="113" y="1120" type="line"/>
      <point x="987" y="1120" type="line"/>
      <point x="987" y="952" type="line"/>
      <point x="295" y="147" type="line"/>
      <point x="987" y="147" type="line"/>
      <point x="987" y="0" type="line"/>
      <point x="88" y="0" type="line"/>
      <point x="88" y="168" type="line"/>
      <point x="780" y="973" type="line"/>
      <point x="113" y="973" type="line"/>
      <point x="113" y="1120" type="line"/>
    </contour>
    <component base="blob1" xScale="0" xyScale="1.2886" yScale="0" yxScale="-1.2886" xOffset="501" yOffset="714"/>
    <component base="blob2" xScale="0" xyScale="1" yScale="0" yxScale="-1" xOffset="12" yOffset="512"/>
    <component base="blob3" xScale="0" xyScale="1" yScale="0" yxScale="-1" xOffset="-402" yOffset="277"/>
    <component base="blob4" xScale="0" xyScale="0.8783" yScale="0" yxScale="-0.8783" xOffset="-769" yOffset="81"/>
    <component base="blob5" xScale="0" xyScale="1" yScale="0" yxScale="-1" xOffset="-1111" yOffset="283"/>
    <component base="blob6" xScale="0" xyScale="1.1539" yScale="0" yxScale="-1.1539" xOffset="-1646" yOffset="236"/>
    <component base="blob7" xScale="0" xyScale="0.9753" yScale="0" yxScale="-0.9753" xOffset="-2025" yOffset="530"/>
    <component base="blob8" xScale="0" xyScale="0.7047" yScale="0" yxScale="-0.7047" xOffset="-2353" yOffset="761"/>
    <component base="blob9" xScale="0" xyScale="0.4869" yScale="0" yxScale="-0.4869" xOffset="-2639" yOffset="749"/>
    <contour>
      <point x="535" y="1147" type="move" name="above"/>
    </contour>
    <contour>
      <point x="535" y="0" type="move" name="below"/>
    </contour>
    <contour>
      <point x="535" y="0" type="move" name="cedilla"/>
    </contour>
    <contour>
      <point x="0" y="1520" type="move" name="half"/>
    </contour>
    <contour>
      <point x="535" y="0" type="move" name="ogonek"/>
    </contour>
  </outline>
</glyph>
<glyph name="umacron" format="1">
  <advance width="1298"/>
  <unicode hex="016B"/>
  <outline>
    <component base="macron" xOffset="131" yOffset="-1"/>
    <component base="u"/>
    <contour>
      <point x="637" y="1556" type="move" name="above-legacy"/>
    </contour>
    <contour>
      <point x="637" y="0" type="move" name="below"/>
    </contour>
    <contour>
      <point x="637" y="0" type="move" name="cedilla"/>
    </contour>
  </outline>
</glyph>
<glyph name="uni0302" format="1">
  <advance width="0"/>
  <unicode hex="0302"/>
  <outline>
    <contour>
      <point x="-586" y="1638" type="line"/>
      <point x="-438" y="1638" type="line"/>
      <point x="-193" y="1262" type="line"/>
      <point x="-332" y="1262" type="line"/>
      <point x="-512" y="1507" type="line"/>
      <point x="-692" y="1262" type="line"/>
      <point x="-831" y="1262" type="line"/>
    </contour>
    <contour>
      <point x="-512" y="1147" type="move"/>
    </contour>
    <contour>
      <point x="-512" y="1147" type="move" name="_above"/>
    </contour>
    <contour>
      <point x="-512" y="1147" type="move" name="_above-mark"/>
    </contour>
    <contour>
      <point x="-512" y="1640" type="move" name="above-mark"/>
    </contour>
  </outline>
</glyph>
<glyph name="tildecomb" format="1">
  <advance width="0"/>
  <unicode hex="0303"/>
  <outline>
    <component base="tilde" xOffset="-1026"/>
    <contour>
      <point x="-512" y="1147" type="move" name="_above"/>
    </contour>
    <contour>
      <point x="-512" y="1200" type="move" name="_above-mark"/>
    </contour>
    <contour>
      <point x="-512" y="1597" type="move" name="above-mark"/>
    </contour>
  </outline>
</glyph>
<glyph name="uni0310" format="1">
  <advance width="0"/>
  <unicode hex="0310"/>
  <outline>
    <component base="uni0307" yOffset="322"/>
    <component base="breve" xOffset="-1032"/>
    <contour>
      <point x="-512" y="1147" type="move" name="_above"/>
    </contour>
    <contour>
      <point x="-512" y="1282" type="move" name="_above-mark"/>
    </contour>
    <contour>
      <point x="-512" y="1878" type="move" name="above-mark"/>
    </contour>
  </outline>
</glyph>
<glyph name="uni033D" format="1">
  <advance width="0"/>
  <unicode hex="033D"/>
  <outline>
    <contour>
      <point x="-504" y="1392" type="line"/>
      <point x="-629" y="1267" type="line"/>
      <point x="-725" y="1363" type="line"/>
      <point x="-600" y="1488" type="line"/>
      <point x="-725" y="1613" type="line"/>
      <point x="-629" y="1709" type="line"/>
      <point x="-504" y="1584" type="line"/>
      <point x="-379" y="1709" type="line"/>
      <point x="-283" y="1613" type="line"/>
      <point x="-408" y="1488" type="line"/>
      <point x="-283" y="1363" type="line"/>
      <point x="-379" y="1267" type="line"/>
    </contour>
    <contour>
      <point x="-512" y="1147" type="move" name="_above"/>
    </contour>
    <contour>
      <point x="-512" y="1282" type="move" name="_above-mark"/>
    </contour>
    <contour>
      <point x="-512" y="1683" type="move" name="above-mark"/>
    </contour>
  </outline>
</glyph>
<glyph name="uni034C" format="1">
  <advance width="0"/>
  <unicode hex="034C"/>
  <outline>
    <component base="Tilde" yOffset="-73"/>
    <component base="Tilde" yOffset="167"/>
    <contour>
      <point x="-512" y="1147" type="move" name="_above"/>
    </contour>
    <contour>
      <point x="-512" y="1147" type="move" name="_above-mark"/>
    </contour>
    <contour>
      <point x="-512" y="1796" type="move" name="above-mark"/>
    </contour>
  </outline>
</glyph>
<glyph name="uni0353" format="1">
  <advance width="0"/>
  <unicode hex="0353"/>
  <outline>
    <component base="uni033D" yOffset="-1759"/>
    <contour>
      <point x="-512" y="-1" type="move" name="_Ligature below"/>
    </contour>
    <contour>
      <point x="-512" y="-1" type="move" name="_below"/>
    </contour>
    <contour>
      <point x="-512" y="0" type="move" name="_below-mark"/>
    </contour>
    <contour>
      <point x="-512" y="-493" type="move" name="below-mark"/>
    </contour>
  </outline>
</glyph>
<glyph name="uni0428" format="1">
  <advance width="2190"/>
  <unicode hex="0428"/>
  <outline>
    <contour>
      <point x="1196" y="170" type="line"/>
      <point x="1787" y="170" type="line"/>
      <point x="1787" y="1493" type="line"/>
      <point x="1989" y="1493" type="line"/>
      <point x="1989" y="0" type="line"/>
      <point x="201" y="0" type="line"/>
      <point x="201" y="1493" type="line"/>
      <point x="403" y="1493" type="line"/>
      <point x="403" y="170" type="line"/>
      <point x="994" y="170" type="line"/>
      <point x="994" y="1493" type="line"/>
      <point x="1196" y="1493" type="line"/>
    </contour>
    <contour>
      <point x="1095" y="1520" type="move" name="above"/>
    </contour>
  </outline>
</glyph>
<glyph name="uni05B2" format="1">
  <advance width="0"/>
  <unicode hex="05B2"/>
  <outline>
    <contour>
      <point x="255" y="-195" type="line"/>
      <point x="255" y="-45" type="line"/>
      <point x="655" y="-45" type="line"/>
      <point x="655" y="-195" type="line"/>
    </contour>
    <contour>
      <point x="780" y="-45" type="line"/>
      <point x="930" y="-45" type="line"/>
      <point x="930" y="-195" type="line"/>
      <point x="780" y="-195" type="line"/>
    </contour>
    <contour>
      <point x="780" y="-295" type="line"/>
      <point x="930" y="-295" type="line"/>
      <point x="930" y="-445" type="line"/>
      <point x="780" y="-445" type="line"/>
    </contour>
    <contour>
      <point x="655" y="0" type="move" name="_Ligature rtl-below"/>
    </contour>
    <contour>
      <point x="655" y="0" type="move" name="_rtl-below"/>
    </contour>
    <contour>
      <point x="655" y="0" type="move" name="_rtl-below-mark"/>
    </contour>
  </outline>
</glyph>
<glyph name="uni0688" format="1">
  <advance width="912"/>
  <unicode hex="0688"/>
  <outline>
    <component base="uni062F"/>
    <component base="uni0615" xOffset="-62" yOffset="-250"/>
    <contour>
      <point x="450" y="1600" type="move" name="rtl-above"/>
    </contour>
    <contour>
      <point x="450" y="-150" type="move" name="rtl-below"/>
    </contour>
  </outline>
</glyph>
<glyph name="uni1D22" format="1">
  <advance width="1075"/>
  <unicode hex="1D22"/>
  <outline>
    <component base="z"/>
    <contour>
      <point x="535" y="1147" type="move" name="above"/>
    </contour>
    <contour>
      <point x="535" y="0" type="move" name="below"/>
    </contour>
  </outline>
</glyph>
<glyph name="uniFB61" format="1">
  <advance width="618"/>
  <unicode hex="FB61"/>
  <outline>
    <component base="uni066E.medi"/>
    <component base="arabic_2dots_a" xOffset="224" yOffset="1100"/>
    <contour>
      <point x="299" y="1300" type="move" name="rtl-above"/>
    </contour>
    <contour>
      <point x="299" y="-100" type="move" name="rtl-below"/>
    </contour>
  </outline>
</glyph>
<glyph name="uniFB68" format="1">
  <advance width="570"/>
  <unicode hex="FB68"/>
  <outline>
    <component base="uni066E.init"/>
    <component base="uni0615" xOffset="-213" yOffset="-400"/>
    <contour>
      <point x="299" y="1450" type="move" name="rtl-above"/>
    </contour>
    <contour>
      <point x="299" y="-100" type="move" name="rtl-below"/>
    </contour>
  </outline>
</glyph>
<glyph name="uniFB8C" format="1">
  <advance width="989"/>
  <unicode hex="FB8C"/>
  <outline>
    <component base="uni0631"/>
    <component base="uni0615" xOffset="188" yOffset="-450"/>
    <contour>
      <point x="700" y="1400" type="move" name="rtl-above"/>
    </contour>
    <contour>
      <point x="500" y="-500" type="move" name="rtl-below"/>
    </contour>
  </outline>
</glyph>
<glyph name="uniFB8D" format="1">
  <advance width="1130"/>
  <unicode hex="FB8D"/>
  <outline>
    <component base="uniFEAE"/>
    <component base="uni0615" xOffset="188" yOffset="-450"/>
    <contour>
      <point x="700" y="1400" type="move" name="rtl-above"/>
    </contour>
    <contour>
      <point x="500" y="-500" type="move" name="rtl-below"/>
    </contour>
  </outline>
</glyph>
<glyph name="uniFE93" format="1">
  <advance width="1073"/>
  <unicode hex="FE93"/>
  <outline>
    <component base="arabic_2dots" xOffset="250" yOffset="900"/>
    <component base="uni0647"/>
    <contour>
      <point x="450" y="1100" type="move" name="rtl-above"/>
    </contour>
    <contour>
      <point x="500" y="-150" type="move" name="rtl-below"/>
    </contour>
  </outline>
</glyph>
<glyph name="uniFEE8" format="1">
  <advance width="618"/>
  <unicode hex="FEE8"/>
  <outline>
    <component base="arabic_dot" xOffset="224" yOffset="850"/>
    <component base="uni066E.medi"/>
    <contour>
      <point x="299" y="1050" type="move" name="rtl-above"/>
    </contour>
    <contour>
      <point x="299" y="-100" type="move" name="rtl-below"/>
    </contour>
  </outline>
</glyph>
<glyph name="uniFEE9" format="1">
  <advance width="1073"/>
  <unicode hex="FEE9"/>
  <outline>
    <component base="uni0647"/>
    <contour>
      <point x="450" y="850" type="move" name="rtl-above"/>
    </contour>
    <contour>
      <point x="500" y="-150" type="move" name="rtl-below"/>
    </contour>
  </outline>
</glyph>
<glyph name="uni07E0.fina" format="1">
  <advance width="968"/>
  <outline>
    <contour>
      <point x="392" y="0" type="line"/>
      <point x="392" y="1346" type="line"/>
      <point x="61" y="1346" type="line"/>
      <point x="61" y="1493" type="line"/>
      <point x="907" y="1493" type="line"/>
      <point x="907" y="1346" type="line"/>
      <point x="576" y="1346" type="line"/>
      <point x="576" y="147" type="line"/>
      <point x="988" y="147" type="line"/>
      <point x="988" y="0" type="line"/>
    </contour>
    <contour>
      <point x="477" y="1520" type="move" name="rtl-above"/>
    </contour>
    <contour>
      <point x="477" y="0" type="move" name="rtl-below"/>
    </contour>
  </outline>
</glyph>
<glyph name="uni1E2D.dotless" format="1">
  <advance width="569"/>
  <outline>
    <component base="uni02F7" xOffset="-227"/>
    <component base="dotlessi"/>
    <contour>
      <point x="287" y="1147" type="move" name="above"/>
    </contour>
  </outline>
</glyph>
